<?xml version="1.0" encoding="iso-8859-1"?>
<!-- Generator: Adobe Illustrator 18.0.0, SVG Export Plug-In . SVG Version: 6.00 Build 0)  -->
<!DOCTYPE svg PUBLIC "-//W3C//DTD SVG 1.1//EN" "http://www.w3.org/Graphics/SVG/1.1/DTD/svg11.dtd">
<svg version="1.1" id="Capa_1" xmlns="http://www.w3.org/2000/svg" xmlns:xlink="http://www.w3.org/1999/xlink" x="0px" y="0px"
	 viewBox="0 0 455.731 455.731" style="enable-background:new 0 0 455.731 455.731;" xml:space="preserve">
<path d="M0,0v455.731h455.731V0H0z M312.489,83.04c26.972,0,48.836,21.865,48.836,48.837s-21.865,48.836-48.836,48.836
	c-26.972,0-48.836-21.865-48.836-48.836S285.518,83.04,312.489,83.04z M206.915,90.781c22.299,0,40.376,18.077,40.376,40.376
	c0,22.299-18.077,40.376-40.376,40.376c-22.299,0-40.376-18.077-40.376-40.376C166.539,108.858,184.616,90.781,206.915,90.781z
	 M118.974,100.043c17.281,0,31.29,14.009,31.29,31.29c0,17.281-14.009,31.29-31.29,31.29s-31.29-14.009-31.29-31.29
	C87.684,114.052,101.693,100.043,118.974,100.043z M381.534,372.691H242.603v-42.44h-93.467v-44.626H74.197v-74.178
	c0-24.581,19.926-44.507,44.507-44.507h0c20.269,0,37.362,13.554,42.738,32.09c10.516-13.347,26.813-21.927,45.124-21.927h0
	c23.628,0,43.916,14.273,52.732,34.665c12.74-14.877,31.647-24.317,52.77-24.317h0c38.365,0,69.466,31.101,69.466,69.466V372.691z"
	/>
<g>
</g>
<g>
</g>
<g>
</g>
<g>
</g>
<g>
</g>
<g>
</g>
<g>
</g>
<g>
</g>
<g>
</g>
<g>
</g>
<g>
</g>
<g>
</g>
<g>
</g>
<g>
</g>
<g>
</g>
</svg>
